HIERARCHY
ROOT hip
{
	OFFSET 0.000000 0.000000 0.000000 
	CHANNELS 6 Xposition Yposition Zposition Xrotation Zrotation Yrotation
	JOINT abdomen
	{
		OFFSET 0.000000 3.402643 0.000000 
		CHANNELS 3 Xrotation Zrotation Yrotation
		JOINT chest
		{
			OFFSET 0.000000 8.438565 -0.680529 
			CHANNELS 3 Xrotation Zrotation Yrotation
			JOINT neck
			{
				OFFSET 0.000000 10.207942 -0.272212 
				CHANNELS 3 Xrotation Zrotation Yrotation
				JOINT head
				{
					OFFSET 0.000000 3.130431 0.000000 
					CHANNELS 3 Xrotation Zrotation Yrotation
					End Site
					{
						OFFSET 0.000000 3.130435 0.000000 
					}
				}
			}
			JOINT lCollar
			{
				OFFSET 3.470700 6.669187 -0.816635 
				CHANNELS 3 Yrotation Zrotation Xrotation
				JOINT lShldr
				{
					OFFSET 3.198488 0.000000 0.000000 
					CHANNELS 3 Zrotation Yrotation Xrotation
					JOINT lForeArm
					{
						OFFSET 10.139888 0.000000 0.000000 
						CHANNELS 3 Yrotation Zrotation Xrotation
						JOINT lHand
						{
							OFFSET 8.370511 0.000000 0.000000 
							CHANNELS 3 Zrotation Yrotation Xrotation
							End Site
							{
								OFFSET 4.083176 0.000000 0.000000 
							}
						}
					}
				}
			}
			JOINT rCollar
			{
				OFFSET -3.470700 6.669187 -0.816635 
				CHANNELS 3 Yrotation Zrotation Xrotation
				JOINT rShldr
				{
					OFFSET -3.198488 0.000000 0.000000 
					CHANNELS 3 Zrotation Yrotation Xrotation
					JOINT rForeArm
					{
						OFFSET -10.139888 0.000000 0.000000 
						CHANNELS 3 Yrotation Zrotation Xrotation
						JOINT rHand
						{
							OFFSET -8.370511 0.000000 0.000000 
							CHANNELS 3 Zrotation Yrotation Xrotation
							End Site
							{
								OFFSET -4.083176 0.000000 0.000000 
							}
						}
					}
				}
			}
		}
	}
	JOINT lThigh
	{
		OFFSET 5.308129 -1.633274 1.361059 
		CHANNELS 3 Xrotation Zrotation Yrotation
		JOINT lShin
		{
			OFFSET -2.041588 -20.007561 0.000000 
			CHANNELS 3 Xrotation Zrotation Yrotation
			JOINT lFoot
			{
				OFFSET 0.000000 -19.190928 -1.224953 
				CHANNELS 3 Xrotation Yrotation Zrotation
				End Site
				{
					OFFSET 0.000000 -2.449906 4.627600 
				}
			}
		}
	}
	JOINT rThigh
	{
		OFFSET -5.308129 -1.633274 1.361059 
		CHANNELS 3 Xrotation Zrotation Yrotation
		JOINT rShin
		{
			OFFSET 2.041588 -20.007561 0.000000 
			CHANNELS 3 Xrotation Zrotation Yrotation
			JOINT rFoot
			{
				OFFSET 0.000000 -19.190928 -1.224953 
				CHANNELS 3 Xrotation Yrotation Zrotation
				End Site
				{
					OFFSET 0.000000 -2.449906 4.627600 
				}
			}
		}
	}
}
MOTION
Frames: 14
Frame Time: 0.033333
-62.074669 53.255215 80.831543 21.093750 10.507813 -31.453299 42.855175 -7.116726 -8.684858 -27.812500 15.537109 4.748710 51.063168 8.107644 2.471410 -85.166016 -2.724609 4.052734 2.000000 -2.000000 0.000000 -80.146484 22.919922 -4.394532 -77.795158 -0.404090 -2.789591 -22.629143 47.310631 -28.028479 -2.000000 2.000000 0.000000 74.394531 -24.082031 -9.843137 74.093880 0.960362 -2.767263 -15.590337 -48.328423 13.127647 -20.961096 10.894855 4.924047 9.599968 -5.220270 -1.059829 -2.619855 5.179598 -8.527239 -48.846928 -12.675444 -22.478176 39.556717 3.866797 3.294180 6.375506 -4.315379 8.725577 
-64.782799 52.902840 84.220093 20.195314 10.234375 -28.074434 42.891270 -4.948393 -9.017937 -27.402344 16.767580 4.368052 51.063168 8.107644 2.471410 -86.386719 -2.568359 3.935109 2.000000 -2.000000 0.000000 -79.589844 21.689453 -2.001953 -78.695320 -0.720021 -2.839711 -23.681021 46.076969 -29.563450 -2.000000 2.000000 0.000000 74.443359 -25.107424 -12.177734 77.072075 0.686253 -2.763561 -15.476437 -47.418152 14.451545 -13.950625 9.547346 3.634460 5.716290 -5.238837 -0.705983 -3.787379 3.711858 -8.514321 -50.102879 -15.493627 -28.819567 27.591915 4.510812 2.455078 -3.257530 -1.384104 8.900746 
-67.664284 51.802124 87.608299 18.603516 10.507813 -23.201342 42.459202 -3.282772 -9.825739 -25.878906 18.466797 3.860515 51.063168 8.107644 2.471410 -87.314453 -2.724609 4.902344 2.000000 -2.000000 0.000000 -78.437500 21.357422 1.533203 -80.985046 -0.827110 -2.999727 -24.742481 44.365704 -31.468002 -2.000000 2.000000 0.000000 74.140625 -26.240232 -14.140622 80.413910 0.553719 -2.839674 -15.242858 -46.750237 15.760066 -7.334443 9.053139 3.184945 4.848247 -5.239511 -0.652753 -5.835109 -0.497927 -8.522349 -49.929317 -17.672852 -32.439808 20.541140 4.803333 1.898070 -7.850067 -0.096460 10.427961 
-70.665306 50.240261 90.993614 16.650391 10.781250 -18.757940 41.351570 -1.840814 -10.908447 -23.349609 20.468750 3.613282 51.063168 8.107644 2.471410 -87.724609 -4.384766 5.809801 2.000000 -2.000000 0.000000 -77.646484 21.582029 4.091797 -83.451424 -0.906629 -3.190830 -26.256227 42.560699 -33.242336 -2.000000 2.000000 0.000000 75.185547 -28.867189 -17.328932 85.338600 0.354630 -2.948972 -15.641129 -46.619774 17.526777 -2.313146 9.603000 2.774010 7.132971 -5.250159 -0.854296 -7.709288 -4.482324 -2.408808 -51.109489 -19.526358 -30.633005 21.247274 4.784342 1.942809 -5.902832 -2.229679 9.834703 
-73.732285 48.622826 94.373482 15.224609 11.025392 -16.521570 40.693340 -0.572070 -10.989921 -21.591797 21.416016 3.642579 51.063168 8.107644 2.471410 -87.919922 -7.373046 5.019531 2.000000 -2.000000 0.000000 -77.705078 22.255859 5.068359 -85.369499 -0.475007 -3.000597 -27.704283 40.853466 -34.461277 -2.000000 2.000000 0.000000 78.251953 -33.398438 -22.681156 91.132141 0.145222 -3.049088 -15.753806 -46.807186 19.575388 1.550897 10.960999 3.407770 11.772853 -5.119375 -1.379308 -7.061343 -6.876937 2.744138 -52.487366 -21.315458 -26.299953 25.664146 4.609258 2.300472 -0.674683 -6.015385 9.109659 
-76.811523 48.016647 97.745155 14.296875 10.390625 -17.390816 40.307037 0.732832 -9.448526 -21.669924 20.380861 4.199219 51.063168 8.107644 2.471410 -87.705078 -10.488280 2.929688 2.000000 -2.000000 0.000000 -79.355469 23.916016 2.152396 -86.059372 -0.282433 -2.884653 -27.634975 39.649326 -32.333118 -2.000000 2.000000 0.000000 81.738281 -37.197266 -28.125000 94.817917 0.095179 -3.198670 -15.146667 -46.611984 21.842823 -5.242440 12.202067 2.358454 29.343859 -4.634778 -2.656654 14.064690 -2.439205 9.007153 -53.499763 -23.060371 -21.238466 30.758842 4.374534 2.513955 5.949384 -9.721507 8.183264 
-79.849564 47.511333 101.106163 13.369141 9.570313 -20.388479 40.406914 1.976048 -6.789862 -22.548828 18.330078 5.256978 51.063168 8.107644 2.471410 -86.630859 -12.099608 1.835938 2.000000 -2.000000 0.000000 -82.783203 26.728518 -3.632813 -86.248695 -0.446323 -3.012039 -27.246296 38.807217 -28.878391 -2.000000 2.000000 0.000000 81.425781 -39.443356 -27.792967 94.990944 -0.007949 -3.106837 -12.155703 -46.492294 23.806494 2.020964 12.109211 4.564534 23.025103 -4.885881 -2.146399 27.324881 1.258144 12.642236 -52.067844 -23.640530 -18.062294 33.050083 4.247157 2.694875 11.461071 -12.890270 7.599073 
-82.792488 48.203674 104.453865 12.968751 8.730469 -24.012190 40.435806 1.935024 -5.001123 -23.369143 16.796877 5.908203 51.063168 8.107644 2.471410 -84.423828 -11.396483 1.513672 2.000000 -2.000000 0.000000 -85.117188 29.140627 -7.529296 -85.888458 -0.272262 -2.709188 -26.932047 38.133568 -26.592890 -2.000000 2.000000 0.000000 78.349609 -40.439457 -22.428209 93.071220 0.263733 -3.237839 -8.061433 -46.197163 26.027910 -3.250911 12.035355 6.261266 30.944281 -4.561627 -2.790579 34.289455 5.341258 12.856788 -47.737846 -21.185989 -17.845589 36.746872 4.032903 2.764168 3.451628 -11.642693 7.445785 
-85.586952 48.755886 107.785721 12.958984 8.378906 -26.551310 40.216942 0.337981 -4.325981 -24.306643 16.308594 5.937500 51.063168 8.107644 2.471410 -82.910156 -10.341796 1.103516 2.000000 -2.000000 0.000000 -84.521484 29.140627 -6.279296 -84.477921 -0.147073 -2.912062 -26.314220 37.725025 -26.757120 -2.000000 2.000000 0.000000 76.494141 -39.785160 -16.871483 90.253502 0.194533 -3.056013 -5.016982 -45.934250 25.357067 -11.979425 12.202981 8.868958 41.143822 -4.181669 -3.445939 33.742783 6.868443 5.025404 -40.992519 -18.512337 -18.954439 35.159763 4.120247 2.828483 -1.053801 -10.019792 7.604733 
-88.096977 50.331482 111.016685 13.154297 8.730469 -28.201639 39.974922 -1.688854 -3.563312 -25.234377 15.996095 5.644532 51.063168 8.107644 2.471410 -83.056641 -11.074218 -0.888672 2.000000 -2.000000 0.000000 -83.740234 28.007814 -3.320313 -82.392448 -0.761121 -3.042667 -25.762079 38.139511 -27.488779 -2.000000 2.000000 0.000000 76.884766 -38.154297 -14.459159 86.569901 0.327075 -2.979900 -5.220157 -45.749630 23.222372 -21.722425 12.309252 11.453785 49.768520 -3.526479 -4.036003 28.357523 8.151720 -5.268901 -33.041702 -15.951900 -19.897097 28.999987 4.452333 2.409982 -3.322724 -9.058876 8.058664 
-90.320953 51.916706 114.155968 13.710937 9.375000 -29.521484 39.598701 -4.107618 -3.148822 -26.337893 15.859377 5.332032 51.063168 8.107644 2.471410 -83.828125 -12.773437 -3.339844 2.000000 -2.000000 0.000000 -81.699219 27.919924 0.263672 -81.319351 -0.616312 -2.738167 -24.984152 37.961845 -28.337242 -2.000000 2.000000 0.000000 77.792969 -35.312500 -12.587891 82.172836 0.507231 -2.881476 -6.135218 -45.813000 19.352388 -29.846674 12.885677 13.307621 53.455654 -3.595721 -4.095386 21.882927 9.565015 -11.947328 -24.225372 -13.404584 -20.805330 19.495869 4.939939 1.162277 -3.457177 -7.792479 8.978791 
-92.406654 52.990044 117.339348 14.472657 10.380860 -30.535351 39.292850 -6.594079 -2.975180 -27.255859 15.703126 5.087891 51.063168 8.107644 2.471410 -84.472656 -13.857420 -5.449219 2.000000 -2.000000 0.000000 -78.505859 29.287109 2.675781 -81.689018 -0.799555 -3.030660 -24.375530 38.414589 -28.241446 -2.000000 2.000000 0.000000 79.140625 -32.529297 -11.093749 78.479172 0.639202 -2.795617 -7.823052 -46.224628 15.573485 -35.517361 13.105474 14.890683 49.399242 -3.581371 -3.874783 15.024035 10.167145 -13.451177 -19.625134 -12.426536 -21.785915 15.974779 5.041597 0.863747 2.095968 -5.780080 9.526423 
-94.501945 53.436047 120.707901 15.224609 11.347656 -31.550812 39.043133 -8.954688 -2.669279 -27.998049 15.185550 4.697265 51.063168 8.107644 2.471410 -84.863281 -13.906249 -6.328126 2.000000 -2.000000 0.000000 -74.443359 31.201176 5.190607 -83.086655 -0.733565 -3.073725 -24.402697 38.864788 -28.221138 -2.000000 2.000000 0.000000 79.599602 -30.839844 -9.384766 75.858521 0.905396 -2.662727 -9.602865 -46.923492 12.821366 -40.096962 13.300571 16.372604 40.087311 -4.139256 -3.332945 5.261351 8.539895 -11.757351 -14.617700 -11.745223 -23.575968 12.073450 5.075285 1.205877 4.279624 -3.551157 9.303932 
-96.641792 53.058132 124.283562 15.820313 12.167969 -32.400288 38.525963 -10.928051 -2.702927 -28.564453 14.150391 4.706842 51.063168 8.107644 2.471410 -85.458984 -13.300779 -6.630860 2.000000 -2.000000 0.000000 -71.982422 33.427734 5.708504 -85.180183 -0.311117 -2.873210 -24.133757 39.883675 -27.518555 -2.000000 2.000000 0.000000 78.085938 -31.669924 -6.313722 75.682732 0.915145 -2.662161 -11.051028 -48.618351 11.646559 -44.335625 13.437425 17.381992 30.033230 -4.508318 -2.692564 -3.592686 4.909091 -10.655540 -8.944576 -11.119993 -24.676212 9.077897 5.124472 0.785669 1.915582 -1.766072 9.069779 
